<svg width="12" height="14" viewBox="0 0 12 14" fill="none" xmlns="http://www.w3.org/2000/svg">
<path d="M8.68056 1.673V12.173C8.68056 13.342 9.47222 14 10.3403 14C11.1319 14 12 13.447 12 12.173V1.75C12 0.672 11.2083 0 10.3403 0C9.47222 0 8.68056 0.742 8.68056 1.673ZM4.34028 7V12.173C4.34028 13.349 5.14583 14 6 14C6.79167 14 7.65972 13.447 7.65972 12.173V7.077C7.65972 5.999 6.86806 5.327 6 5.327C5.13195 5.327 4.34028 6.069 4.34028 7ZM1.65972 10.661C2.57639 10.661 3.31945 11.41 3.31945 12.327C3.31945 12.7707 3.14458 13.1962 2.83332 13.51C2.52207 13.8237 2.09991 14 1.65972 14C1.21954 14 0.79738 13.8237 0.486121 13.51C0.174863 13.1962 0 12.7707 0 12.327C0 11.41 0.743056 10.661 1.65972 10.661Z" fill="#4A4A4A"/>
</svg>
