<svg width="12" height="12" viewBox="0 0 12 12" fill="none" xmlns="http://www.w3.org/2000/svg">
<path d="M0 2.16667C0 1.59203 0.228273 1.04093 0.634602 0.634602C1.04093 0.228273 1.59203 0 2.16667 0H9.83333C10.408 0 10.9591 0.228273 11.3654 0.634602C11.7717 1.04093 12 1.59203 12 2.16667V9.83333C12 10.408 11.7717 10.9591 11.3654 11.3654C10.9591 11.7717 10.408 12 9.83333 12H2.16667C1.59203 12 1.04093 11.7717 0.634602 11.3654C0.228273 10.9591 0 10.408 0 9.83333V2.16667ZM2.16667 1C1.85725 1 1.5605 1.12292 1.34171 1.34171C1.12292 1.5605 1 1.85725 1 2.16667V9.83333C1 10.4773 1.52267 11 2.16667 11H9.83333C10.1428 11 10.4395 10.8771 10.6583 10.6583C10.8771 10.4395 11 10.1428 11 9.83333V2.16667C11 1.85725 10.8771 1.5605 10.6583 1.34171C10.4395 1.12292 10.1428 1 9.83333 1H2.16667ZM2 3.5C2 2.856 2.52267 2.33333 3.16667 2.33333H8.83333C9.47733 2.33333 10 2.856 10 3.5V4.5C10 4.80942 9.87708 5.10617 9.65829 5.32496C9.4395 5.54375 9.14275 5.66667 8.83333 5.66667H3.16667C2.85725 5.66667 2.5605 5.54375 2.34171 5.32496C2.12292 5.10617 2 4.80942 2 4.5V3.5ZM3.16667 3.33333C3.12246 3.33333 3.08007 3.35089 3.04882 3.38215C3.01756 3.4134 3 3.4558 3 3.5V4.5C3 4.592 3.07467 4.66667 3.16667 4.66667H8.83333C8.87754 4.66667 8.91993 4.64911 8.95118 4.61785C8.98244 4.5866 9 4.5442 9 4.5V3.5C9 3.4558 8.98244 3.4134 8.95118 3.38215C8.91993 3.35089 8.87754 3.33333 8.83333 3.33333H3.16667ZM2.5 6.66667C2.36739 6.66667 2.24021 6.71935 2.14645 6.81311C2.05268 6.90688 2 7.03406 2 7.16667C2 7.29928 2.05268 7.42645 2.14645 7.52022C2.24021 7.61399 2.36739 7.66667 2.5 7.66667H5.5C5.63261 7.66667 5.75979 7.61399 5.85355 7.52022C5.94732 7.42645 6 7.29928 6 7.16667C6 7.03406 5.94732 6.90688 5.85355 6.81311C5.75979 6.71935 5.63261 6.66667 5.5 6.66667H2.5ZM2 9.16667C2 9.03406 2.05268 8.90688 2.14645 8.81311C2.24021 8.71934 2.36739 8.66667 2.5 8.66667H5.5C5.63261 8.66667 5.75979 8.71934 5.85355 8.81311C5.94732 8.90688 6 9.03406 6 9.16667C6 9.29928 5.94732 9.42645 5.85355 9.52022C5.75979 9.61399 5.63261 9.66667 5.5 9.66667H2.5C2.36739 9.66667 2.24021 9.61399 2.14645 9.52022C2.05268 9.42645 2 9.29928 2 9.16667ZM8.16667 6.66667C7.85725 6.66667 7.5605 6.78958 7.34171 7.00838C7.12292 7.22717 7 7.52391 7 7.83333V8.5C7 9.144 7.52267 9.66667 8.16667 9.66667H8.83333C9.14275 9.66667 9.4395 9.54375 9.65829 9.32496C9.87708 9.10617 10 8.80942 10 8.5V7.83333C10 7.52391 9.87708 7.22717 9.65829 7.00838C9.4395 6.78958 9.14275 6.66667 8.83333 6.66667H8.16667ZM8 7.83333C8 7.78913 8.01756 7.74674 8.04882 7.71548C8.08007 7.68423 8.12246 7.66667 8.16667 7.66667H8.83333C8.87754 7.66667 8.91993 7.68423 8.95118 7.71548C8.98244 7.74674 9 7.78913 9 7.83333V8.5C9 8.5442 8.98244 8.5866 8.95118 8.61785C8.91993 8.64911 8.87754 8.66667 8.83333 8.66667H8.16667C8.12246 8.66667 8.08007 8.64911 8.04882 8.61785C8.01756 8.5866 8 8.5442 8 8.5V7.83333Z" fill="#4A4A4A"/>
</svg>
