<svg width="15" height="15" viewBox="0 0 15 15" fill="none" xmlns="http://www.w3.org/2000/svg">
<path fill-rule="evenodd" clip-rule="evenodd" d="M5.82369 0.748986C6.03468 0.513331 6.293 0.324822 6.58179 0.195764C6.87057 0.0667062 7.18332 0 7.49963 0C7.81593 0 8.12868 0.0667062 8.41746 0.195764C8.70625 0.324822 8.96456 0.513331 9.17556 0.748986L9.70046 1.33539C9.77548 1.41931 9.86842 1.48526 9.9724 1.52836C10.0764 1.57146 10.1887 1.5906 10.3011 1.58435L11.0885 1.54086C11.4042 1.52352 11.72 1.57294 12.0154 1.68589C12.3107 1.79884 12.5789 1.97278 12.8025 2.19638C13.0261 2.41998 13.2 2.6882 13.313 2.98355C13.4259 3.2789 13.4754 3.59475 13.458 3.91048L13.4145 4.69786C13.4084 4.81012 13.4276 4.92232 13.4707 5.02617C13.5138 5.13001 13.5797 5.22283 13.6635 5.29777L14.2506 5.82268C14.4864 6.03369 14.675 6.29206 14.8041 6.58092C14.9333 6.86978 15 7.18263 15 7.49904C15 7.81545 14.9333 8.1283 14.8041 8.41716C14.675 8.70602 14.4864 8.96439 14.2506 9.1754L13.6635 9.70032C13.5796 9.77533 13.5136 9.86828 13.4705 9.97226C13.4274 10.0762 13.4083 10.1886 13.4145 10.301L13.458 11.0883C13.4754 11.4041 13.4259 11.7199 13.313 12.0153C13.2 12.3106 13.0261 12.5789 12.8025 12.8025C12.5789 13.026 12.3107 13.2 12.0154 13.3129C11.72 13.4259 11.4042 13.4753 11.0885 13.458L10.3011 13.4145C10.1888 13.4084 10.0766 13.4275 9.97281 13.4706C9.86897 13.5137 9.77615 13.5796 9.70121 13.6634L9.17631 14.2506C8.96531 14.4864 8.70695 14.675 8.4181 14.8041C8.12924 14.9333 7.8164 15 7.5 15C7.1836 15 6.87076 14.9333 6.5819 14.8041C6.29305 14.675 6.03469 14.4864 5.82369 14.2506L5.29879 13.6634C5.22377 13.5795 5.13083 13.5136 5.02685 13.4705C4.92288 13.4274 4.81053 13.4082 4.69815 13.4145L3.91079 13.458C3.59507 13.4753 3.27923 13.4259 2.98389 13.3129C2.68854 13.2 2.42033 13.026 2.19674 12.8025C1.97315 12.5789 1.79921 12.3106 1.68626 12.0153C1.57331 11.7199 1.5239 11.4041 1.54124 11.0883L1.58473 10.301C1.59086 10.1887 1.57166 10.0765 1.52857 9.97267C1.48548 9.86882 1.41959 9.776 1.33577 9.70107L0.749384 9.17615C0.513612 8.96514 0.325003 8.70677 0.195873 8.41791C0.0667442 8.12905 0 7.8162 0 7.49979C0 7.18338 0.0667442 6.87053 0.195873 6.58167C0.325003 6.29281 0.513612 6.03444 0.749384 5.82343L1.33577 5.29851C1.41969 5.2235 1.48564 5.13055 1.52874 5.02657C1.57183 4.92259 1.59097 4.81025 1.58473 4.69786L1.54124 3.91048C1.5239 3.59475 1.57331 3.2789 1.68626 2.98355C1.79921 2.6882 1.97315 2.41998 2.19674 2.19638C2.42033 1.97278 2.68854 1.79884 2.98389 1.68589C3.27923 1.57294 3.59507 1.52352 3.91079 1.54086L4.69815 1.58435C4.81041 1.59048 4.9226 1.57129 5.02644 1.52819C5.13028 1.4851 5.2231 1.41921 5.29804 1.33539L5.82294 0.748986H5.82369ZM10.2794 4.71961C10.4199 4.86023 10.4989 5.05093 10.4989 5.24977C10.4989 5.44861 10.4199 5.63931 10.2794 5.77994L5.7802 10.2792C5.63877 10.4158 5.44935 10.4914 5.25274 10.4897C5.05613 10.488 4.86806 10.4091 4.72903 10.2701C4.59 10.1311 4.51114 9.94298 4.50943 9.74636C4.50772 9.54974 4.5833 9.36032 4.71989 9.21889L9.21905 4.71961C9.35967 4.57903 9.55037 4.50005 9.74921 4.50005C9.94804 4.50005 10.1387 4.57903 10.2794 4.71961ZM5.62497 4.49989C5.32666 4.49989 5.04057 4.6184 4.82963 4.82934C4.61869 5.04029 4.50018 5.32639 4.50018 5.62471V5.63221C4.50018 5.93053 4.61869 6.21664 4.82963 6.42758C5.04057 6.63853 5.32666 6.75703 5.62497 6.75703H5.63247C5.93079 6.75703 6.21688 6.63853 6.42782 6.42758C6.63876 6.21664 6.75726 5.93053 6.75726 5.63221V5.62471C6.75726 5.32639 6.63876 5.04029 6.42782 4.82934C6.21688 4.6184 5.93079 4.49989 5.63247 4.49989H5.62497ZM9.37428 8.2493C9.07596 8.2493 8.78987 8.3678 8.57893 8.57875C8.36799 8.78969 8.24949 9.0758 8.24949 9.37412V9.38162C8.24949 9.67994 8.36799 9.96604 8.57893 10.177C8.78987 10.3879 9.07596 10.5064 9.37428 10.5064H9.38177C9.68009 10.5064 9.96618 10.3879 10.1771 10.177C10.3881 9.96604 10.5066 9.67994 10.5066 9.38162V9.37412C10.5066 9.0758 10.3881 8.78969 10.1771 8.57875C9.96618 8.3678 9.68009 8.2493 9.38177 8.2493H9.37428Z" fill="#4A4A4A"/>
</svg>
