<svg width="12" height="13" viewBox="0 0 12 13" fill="none" xmlns="http://www.w3.org/2000/svg">
<path d="M1 13C0.447715 13 0 12.5523 0 12V4.84465C0 4.52354 0.154197 4.22197 0.414509 4.03397L5.41451 0.422854C5.76402 0.170427 6.23598 0.170427 6.58549 0.422854L11.5855 4.03397C11.8458 4.22197 12 4.52354 12 4.84464V12C12 12.5523 11.5523 13 11 13H8.5C7.94772 13 7.5 12.5523 7.5 12V8.94444C7.5 8.39216 7.05228 7.94444 6.5 7.94444H5.5C4.94772 7.94444 4.5 8.39216 4.5 8.94444V12C4.5 12.5523 4.05228 13 3.5 13H1Z" fill="#4A4A4A"/>
</svg>
