<svg width="15" height="15" viewBox="0 0 15 15" fill="none" xmlns="http://www.w3.org/2000/svg">
<path fill-rule="evenodd" clip-rule="evenodd" d="M12.2975 0.407131C12.2746 0.314926 12.2276 0.230454 12.1613 0.162355C12.095 0.0942559 12.0117 0.0449753 11.9201 0.0195549C11.8285 -0.0058655 11.7318 -0.00651329 11.6398 0.0176778C11.5478 0.0418689 11.464 0.0900305 11.3968 0.157235L9.24968 2.30226C9.1842 2.36782 9.13683 2.4492 9.11219 2.53847C9.08754 2.62775 9.08646 2.72188 9.10904 2.8117L9.49552 4.36041C9.49044 4.36535 9.48543 4.37035 9.48049 4.37543L6.91365 6.9398C6.77143 7.09229 6.694 7.29397 6.69768 7.50236C6.70137 7.71075 6.78587 7.90958 6.93338 8.05696C7.0809 8.20433 7.27992 8.28875 7.48851 8.29243C7.6971 8.29611 7.89898 8.21875 8.05161 8.07667L10.6206 5.51336C10.6257 5.50806 10.6307 5.5027 10.6356 5.49727L12.1847 5.88445C12.2746 5.90702 12.3689 5.90593 12.4582 5.88131C12.5476 5.85669 12.6291 5.80937 12.6947 5.74395L14.8418 3.59893C14.9093 3.53181 14.9578 3.44794 14.9821 3.35593C15.0065 3.26392 15.0059 3.16709 14.9805 3.07537C14.955 2.98366 14.9056 2.90037 14.8372 2.83405C14.7689 2.76773 14.6841 2.72078 14.5916 2.69802L12.7569 2.24113L12.2985 0.407131H12.2975ZM7.82294 0.814685C7.83769 1.02744 7.76727 1.23734 7.62716 1.39823C7.48704 1.55913 7.28871 1.65785 7.07576 1.6727C5.95412 1.75035 4.87837 2.14807 3.97634 2.81858C3.07431 3.4891 2.38392 4.40422 1.98719 5.45523C1.59047 6.50623 1.50409 7.64892 1.73833 8.74752C1.97256 9.84613 2.51756 10.8545 3.30857 11.6527C4.09958 12.451 5.10334 13.0056 6.20059 13.2506C7.29783 13.4957 8.44243 13.4209 9.49838 13.0351C10.5543 12.6494 11.4772 11.9689 12.1574 11.0745C12.8376 10.1802 13.2466 9.10952 13.3356 7.98979C13.3525 7.77703 13.4534 7.5797 13.6159 7.44121C13.7785 7.30273 13.9895 7.23444 14.2025 7.25137C14.4154 7.26829 14.6129 7.36905 14.7516 7.53146C14.8902 7.69388 14.9585 7.90465 14.9416 8.11742C14.828 9.5441 14.3068 10.9082 13.44 12.0477C12.5733 13.1872 11.3973 14.0541 10.0518 14.5455C8.70636 15.0369 7.24797 15.1322 5.84993 14.8199C4.4519 14.5076 3.17297 13.801 2.1651 12.7839C1.15723 11.7668 0.462781 10.4821 0.164263 9.08233C-0.134256 7.68256 -0.024297 6.22661 0.481075 4.88744C0.986446 3.54827 1.86599 2.38218 3.0152 1.52771C4.16442 0.673243 5.535 0.166311 6.96411 0.0671443C7.17707 0.0524094 7.38717 0.122765 7.54822 0.262744C7.70927 0.402723 7.80808 0.601939 7.82294 0.814685ZM7.10152 4.3529C7.1401 4.45128 7.1589 4.55629 7.15685 4.66193C7.1548 4.76756 7.13193 4.87176 7.08956 4.96857C7.04719 5.06538 6.98615 5.1529 6.90992 5.22613C6.83368 5.29937 6.74376 5.35688 6.64527 5.39539C6.29319 5.53336 5.98108 5.75681 5.73715 6.04554C5.49322 6.33427 5.32515 6.67918 5.24814 7.04909C5.17113 7.41901 5.1876 7.80226 5.29607 8.16422C5.40454 8.52618 5.60158 8.85542 5.8694 9.1222C6.13721 9.38898 6.46734 9.58487 6.82996 9.69218C7.19258 9.79949 7.57625 9.81483 7.94629 9.73682C8.31633 9.65881 8.66108 9.48989 8.94938 9.24535C9.23767 9.00081 9.46043 8.68835 9.59751 8.33621C9.63585 8.23776 9.69323 8.14782 9.76637 8.07153C9.83951 7.99523 9.92697 7.93408 10.0238 7.89155C10.1206 7.84902 10.2248 7.82596 10.3305 7.82368C10.4362 7.8214 10.5414 7.83994 10.6399 7.87825C10.7385 7.91656 10.8285 7.97389 10.9049 8.04695C10.9812 8.12002 11.0424 8.2074 11.085 8.30411C11.1276 8.40081 11.1507 8.50495 11.1529 8.61056C11.1552 8.71618 11.1367 8.82121 11.0983 8.91966C10.8642 9.521 10.4837 10.0546 9.99133 10.4721C9.49895 10.8897 8.91017 11.178 8.27821 11.3111C7.64625 11.4442 6.99105 11.4179 6.37184 11.2345C5.75263 11.0511 5.18894 10.7164 4.73172 10.2607C4.2745 9.805 3.93817 9.24263 3.75314 8.62445C3.56811 8.00626 3.54022 7.35175 3.67198 6.72009C3.80374 6.08843 4.091 5.49954 4.50778 5.00665C4.92457 4.51375 5.45775 4.13241 6.05912 3.89709C6.25786 3.81958 6.47927 3.82405 6.67472 3.90952C6.87017 3.99498 7.02368 4.15445 7.10152 4.3529Z" fill="#4A4A4A"/>
</svg>
