<svg width="68" height="21" viewBox="0 0 68 21" fill="none" xmlns="http://www.w3.org/2000/svg">
<rect x="0.4375" width="66.7603" height="21" rx="5.25" fill="#303030"/>
<g clip-path="url(#clip0_36_3430)">
<path d="M8.86857 7.94034H10.1184L11.7921 12.0255H11.8581L13.5319 7.94034H14.7816V13.5781H13.8016V9.7049H13.7493L12.1912 13.5616H11.459L9.90088 9.69664H9.84858V13.5781H8.86857V7.94034ZM16.4691 15.1638C16.3333 15.1638 16.2076 15.1527 16.092 15.1307C15.9782 15.1105 15.8874 15.0867 15.8195 15.0591L16.0507 14.2828C16.1957 14.3251 16.3251 14.3452 16.4388 14.3434C16.5526 14.3416 16.6526 14.3058 16.7389 14.2361C16.827 14.1681 16.9013 14.0544 16.9619 13.8947L17.0472 13.6662L15.5139 9.34979H16.571L17.5455 12.5431H17.5895L18.5668 9.34979H19.6266L17.9336 14.0902C17.8547 14.314 17.7501 14.5058 17.6198 14.6655C17.4895 14.827 17.3298 14.9499 17.1408 15.0344C16.9536 15.1206 16.7297 15.1638 16.4691 15.1638ZM25.347 9.49018C25.3213 9.24977 25.213 9.06258 25.0221 8.9286C24.8331 8.79463 24.5872 8.72765 24.2844 8.72765C24.0715 8.72765 23.8889 8.75976 23.7366 8.824C23.5843 8.88823 23.4677 8.9754 23.387 9.08552C23.3062 9.19563 23.2649 9.32134 23.2631 9.46265C23.2631 9.58011 23.2897 9.68196 23.3429 9.76822C23.398 9.85447 23.4723 9.92788 23.5659 9.98844C23.6595 10.0472 23.7632 10.0967 23.877 10.1371C23.9908 10.1775 24.1055 10.2114 24.2211 10.2389L24.7496 10.3711C24.9625 10.4206 25.1671 10.4876 25.3635 10.572C25.5617 10.6565 25.7388 10.7629 25.8948 10.8914C26.0526 11.0198 26.1774 11.1749 26.2692 11.3566C26.3609 11.5383 26.4068 11.7512 26.4068 11.9953C26.4068 12.3256 26.3224 12.6165 26.1536 12.8679C25.9847 13.1175 25.7406 13.3129 25.4213 13.4542C25.1038 13.5937 24.7193 13.6635 24.2679 13.6635C23.8293 13.6635 23.4484 13.5956 23.1254 13.4598C22.8043 13.3239 22.5529 13.1257 22.3712 12.8651C22.1913 12.6045 22.0941 12.2871 22.0794 11.9127H23.0842C23.0988 12.109 23.1594 12.2724 23.2658 12.4027C23.3723 12.533 23.5108 12.6302 23.6815 12.6945C23.854 12.7587 24.0467 12.7908 24.2596 12.7908C24.4817 12.7908 24.6762 12.7578 24.8432 12.6917C25.012 12.6238 25.1442 12.5302 25.2396 12.4109C25.335 12.2898 25.3837 12.1485 25.3855 11.987C25.3837 11.8402 25.3406 11.7191 25.2561 11.6236C25.1717 11.5264 25.0533 11.4456 24.901 11.3814C24.7505 11.3153 24.5744 11.2566 24.3725 11.2052L23.7311 11.04C23.2668 10.9207 22.8997 10.74 22.6299 10.4977C22.362 10.2536 22.228 9.92972 22.228 9.52597C22.228 9.19379 22.318 8.90291 22.4978 8.65332C22.6795 8.40373 22.9263 8.21012 23.2383 8.07248C23.5503 7.933 23.9036 7.86326 24.2982 7.86326C24.6982 7.86326 25.0488 7.933 25.3497 8.07248C25.6525 8.21012 25.8902 8.4019 26.0627 8.64782C26.2352 8.8919 26.3242 9.17269 26.3297 9.49018H25.347ZM29.3847 9.34979V10.1206H26.9539V9.34979H29.3847ZM27.5541 8.33675H28.5506V12.3063C28.5506 12.4403 28.5708 12.5431 28.6111 12.6146C28.6533 12.6844 28.7084 12.7321 28.7763 12.7578C28.8442 12.7835 28.9195 12.7963 29.002 12.7963C29.0644 12.7963 29.1213 12.7917 29.1727 12.7826C29.2259 12.7734 29.2663 12.7651 29.2938 12.7578L29.4618 13.5368C29.4085 13.5552 29.3324 13.5754 29.2333 13.5974C29.136 13.6194 29.0167 13.6323 28.8754 13.6359C28.6258 13.6433 28.401 13.6057 28.201 13.5231C28.0009 13.4386 27.8422 13.3083 27.7247 13.1322C27.6091 12.956 27.5522 12.7358 27.5541 12.4715V8.33675ZM32.0171 13.6607C31.6041 13.6607 31.2463 13.5699 30.9435 13.3882C30.6407 13.2065 30.4057 12.9523 30.2387 12.6256C30.0736 12.299 29.991 11.9173 29.991 11.4805C29.991 11.0437 30.0736 10.661 30.2387 10.3325C30.4057 10.004 30.6407 9.74895 30.9435 9.56726C31.2463 9.38557 31.6041 9.29473 32.0171 9.29473C32.43 9.29473 32.7879 9.38557 33.0907 9.56726C33.3935 9.74895 33.6275 10.004 33.7926 10.3325C33.9596 10.661 34.0431 11.0437 34.0431 11.4805C34.0431 11.9173 33.9596 12.299 33.7926 12.6256C33.6275 12.9523 33.3935 13.2065 33.0907 13.3882C32.7879 13.5699 32.43 13.6607 32.0171 13.6607ZM32.0226 12.8624C32.2465 12.8624 32.4337 12.8009 32.5842 12.678C32.7346 12.5532 32.8466 12.3862 32.92 12.1769C32.9952 11.9677 33.0329 11.7347 33.0329 11.4777C33.0329 11.219 32.9952 10.985 32.92 10.7757C32.8466 10.5647 32.7346 10.3968 32.5842 10.272C32.4337 10.1472 32.2465 10.0848 32.0226 10.0848C31.7932 10.0848 31.6023 10.1472 31.45 10.272C31.2995 10.3968 31.1866 10.5647 31.1114 10.7757C31.038 10.985 31.0013 11.219 31.0013 11.4777C31.0013 11.7347 31.038 11.9677 31.1114 12.1769C31.1866 12.3862 31.2995 12.5532 31.45 12.678C31.6023 12.8009 31.7932 12.8624 32.0226 12.8624ZM34.889 13.5781V9.34979H35.8552V10.0545H35.8992C35.9763 9.81043 36.1085 9.62232 36.2956 9.49018C36.4847 9.35621 36.7003 9.28922 36.9426 9.28922C36.9976 9.28922 37.0591 9.29198 37.127 9.29748C37.1967 9.30115 37.2545 9.30758 37.3004 9.31675V10.2334C37.2582 10.2188 37.1912 10.2059 37.0995 10.1949C37.0095 10.1821 36.9224 10.1756 36.838 10.1756C36.6563 10.1756 36.4929 10.2151 36.348 10.294C36.2048 10.3711 36.0919 10.4784 36.0094 10.6161C35.9268 10.7537 35.8855 10.9125 35.8855 11.0923V13.5781H34.889ZM39.6603 13.6607C39.2364 13.6607 38.8702 13.5726 38.5619 13.3964C38.2554 13.2184 38.0196 12.967 37.8544 12.6422C37.6893 12.3155 37.6067 11.931 37.6067 11.4887C37.6067 11.0538 37.6893 10.6721 37.8544 10.3436C38.0214 10.0132 38.2545 9.75629 38.5537 9.57277C38.8528 9.38741 39.2042 9.29473 39.608 9.29473C39.8686 9.29473 40.1145 9.33694 40.3457 9.42136C40.5788 9.50394 40.7844 9.63241 40.9624 9.80676C41.1422 9.9811 41.2835 10.2032 41.3863 10.4729C41.4891 10.7409 41.5405 11.0602 41.5405 11.4309V11.7365H38.0747V11.0648H40.5852C40.5834 10.8739 40.5421 10.7042 40.4614 10.5555C40.3806 10.405 40.2677 10.2867 40.1228 10.2004C39.9796 10.1142 39.8126 10.071 39.6217 10.071C39.418 10.071 39.2391 10.1206 39.0849 10.2197C38.9308 10.3169 38.8106 10.4454 38.7243 10.6051C38.6399 10.7629 38.5968 10.9363 38.5949 11.1254V11.7117C38.5949 11.9576 38.6399 12.1687 38.7298 12.3449C38.8198 12.5192 38.9455 12.6532 39.107 12.7468C39.2685 12.8385 39.4575 12.8844 39.6741 12.8844C39.819 12.8844 39.9503 12.8642 40.0677 12.8239C40.1852 12.7816 40.287 12.7202 40.3733 12.6394C40.4595 12.5587 40.5247 12.4586 40.5687 12.3394L41.4992 12.444C41.4404 12.6899 41.3285 12.9046 41.1633 13.0881C41 13.2698 40.7908 13.4111 40.5357 13.5121C40.2806 13.6112 39.9888 13.6607 39.6603 13.6607Z" fill="#E3E3E3"/>
</g>
<g clip-path="url(#clip1_36_3430)">
<rect x="47.5103" y="1.3125" width="18.375" height="18.375" rx="3.9375" fill="#FBCFFB"/>
<path d="M51.3336 7.3772H52.1062L53.9228 11.8143H53.9855L55.8021 7.3772H56.5747V12.7227H55.9691V8.66136H55.9169L54.2465 12.7227H53.6618L51.9914 8.66136H51.9392V12.7227H51.3336V7.3772ZM60.7958 8.71357C60.7645 8.44908 60.6375 8.24375 60.4148 8.09759C60.192 7.95142 59.9189 7.87834 59.5952 7.87834C59.3586 7.87834 59.1515 7.91662 58.974 7.99318C58.7983 8.06974 58.6608 8.17502 58.5616 8.309C58.4642 8.44299 58.4154 8.59524 58.4154 8.76577C58.4154 8.90845 58.4494 9.03113 58.5172 9.13379C58.5868 9.23471 58.6756 9.3191 58.7835 9.38697C58.8913 9.45309 59.0045 9.5079 59.1228 9.5514C59.2411 9.59316 59.3499 9.6271 59.449 9.6532L59.9919 9.79936C60.1311 9.8359 60.286 9.88636 60.4565 9.95075C60.6288 10.0151 60.7932 10.103 60.9498 10.2144C61.1082 10.324 61.2387 10.4649 61.3413 10.6372C61.444 10.8095 61.4953 11.0209 61.4953 11.2714C61.4953 11.5603 61.4197 11.8213 61.2683 12.0545C61.1186 12.2876 60.8994 12.473 60.6105 12.6104C60.3234 12.7479 59.9745 12.8166 59.5639 12.8166C59.1811 12.8166 58.8496 12.7548 58.5694 12.6313C58.291 12.5078 58.0718 12.3355 57.9117 12.1145C57.7534 11.8935 57.6637 11.6369 57.6429 11.3445H58.311C58.3284 11.5464 58.3963 11.7134 58.5146 11.8457C58.6347 11.9762 58.7861 12.0736 58.9688 12.138C59.1532 12.2006 59.3516 12.232 59.5639 12.232C59.811 12.232 60.0328 12.1919 60.2295 12.1119C60.4261 12.0301 60.5818 11.917 60.6967 11.7726C60.8115 11.6264 60.8689 11.4559 60.8689 11.261C60.8689 11.0835 60.8193 10.9391 60.7201 10.8277C60.621 10.7164 60.4905 10.6259 60.3286 10.5563C60.1668 10.4867 59.9919 10.4258 59.804 10.3736L59.1463 10.1857C58.7287 10.0656 58.398 9.89419 58.1544 9.67147C57.9108 9.44874 57.789 9.15728 57.789 8.79709C57.789 8.4978 57.8699 8.23679 58.0318 8.01406C58.1953 7.7896 58.4146 7.61559 58.6895 7.49205C58.9662 7.36676 59.275 7.30412 59.6161 7.30412C59.9606 7.30412 60.2669 7.36589 60.5348 7.48944C60.8028 7.61124 61.0151 7.77828 61.1717 7.99057C61.33 8.20286 61.4136 8.44386 61.4223 8.71357H60.7958Z" fill="#791A79"/>
</g>
<defs>
<clipPath id="clip0_36_3430">
<rect width="33.9478" height="10.5" fill="white" transform="translate(8.3125 5.25)"/>
</clipPath>
<clipPath id="clip1_36_3430">
<rect x="47.5103" y="1.3125" width="18.375" height="18.375" rx="3.9375" fill="white"/>
</clipPath>
</defs>
</svg>
