<svg width="21" height="21" viewBox="0 0 21 21" fill="none" xmlns="http://www.w3.org/2000/svg">
<rect width="21" height="21" rx="5.25" fill="#303030"/>
<path fill-rule="evenodd" clip-rule="evenodd" d="M8.69657 13.4032L7.09139 13.2188C5.87404 13.0791 5.52951 11.4739 6.58082 10.8458L6.62348 10.8209C6.9051 10.6528 7.13824 10.4144 7.30009 10.1291C7.46194 9.84382 7.54696 9.5214 7.54682 9.19341V8.85938C7.54682 8.07616 7.85795 7.32502 8.41177 6.7712C8.96559 6.21738 9.71673 5.90625 10.4999 5.90625C11.2832 5.90625 12.0343 6.21738 12.5881 6.7712C13.1419 7.32502 13.4531 8.07616 13.4531 8.85938V9.19406C13.4531 9.86081 13.8042 10.479 14.3771 10.8209L14.4197 10.8458C15.471 11.4739 15.1259 13.0791 13.9092 13.2188L12.2403 13.4105V13.65C12.2403 14.1199 12.0536 14.5706 11.7214 14.9029C11.3891 15.2352 10.9384 15.4219 10.4684 15.4219C9.99852 15.4219 9.54783 15.2352 9.21554 14.9029C8.88325 14.5706 8.69657 14.1199 8.69657 13.65V13.4032ZM11.2559 13.4531H9.68095V13.65C9.68095 13.8589 9.76392 14.0592 9.9116 14.2068C10.0593 14.3545 10.2596 14.4375 10.4684 14.4375C10.6773 14.4375 10.8776 14.3545 11.0253 14.2068C11.173 14.0592 11.2559 13.8589 11.2559 13.65V13.4531ZM9.18745 12.4688H11.8124L13.7969 12.2404C13.8585 12.2333 13.9163 12.207 13.9623 12.1654C14.0082 12.1237 14.0399 12.0687 14.0529 12.0081C14.0659 11.9475 14.0596 11.8843 14.0349 11.8274C14.0102 11.7706 13.9683 11.7229 13.9151 11.6911L13.8724 11.6662C13.6964 11.5609 13.5321 11.4373 13.3822 11.2973C13.094 11.028 12.8641 10.7024 12.707 10.3406C12.5499 9.97877 12.4687 9.58852 12.4687 9.19406V8.85938C12.4687 8.33723 12.2613 7.83647 11.8921 7.46726C11.5229 7.09805 11.0221 6.89062 10.4999 6.89062C9.9778 6.89062 9.47704 7.09805 9.10783 7.46726C8.73862 7.83647 8.5312 8.33723 8.5312 8.85938V9.19406C8.53124 9.6923 8.40197 10.182 8.15604 10.6153C7.9101 11.0487 7.55592 11.4107 7.12814 11.6662L7.08548 11.6911C7.032 11.7228 6.98983 11.7705 6.96493 11.8275C6.94003 11.8844 6.93366 11.9478 6.94672 12.0086C6.95977 12.0693 6.9916 12.1245 7.03769 12.1662C7.08379 12.2079 7.14182 12.2341 7.2036 12.241L9.18745 12.4688Z" fill="#E3E3E3"/>
</svg>
