<svg width="16" height="16" viewBox="0 0 16 16" fill="none" xmlns="http://www.w3.org/2000/svg">
<rect width="16" height="16" rx="4.26667" fill="#5C5C5C"/>
<path d="M2 5L4.646 2.354C4.75763 2.2417 4.89039 2.1526 5.03662 2.09185C5.18285 2.03109 5.33965 1.99987 5.498 2H10.502C10.6603 1.99987 10.8172 2.03109 10.9634 2.09185C11.1096 2.1526 11.2424 2.2417 11.354 2.354L14 5M3.2 8V12.8C3.2 13.1183 3.32643 13.4235 3.55147 13.6485C3.77652 13.8736 4.08174 14 4.4 14H11.6C11.9183 14 12.2235 13.8736 12.4485 13.6485C12.6736 13.4235 12.8 13.1183 12.8 12.8V8" stroke="#EBEBEB" stroke-linecap="round" stroke-linejoin="round"/>
<path d="M9.8 14V11.6C9.8 11.2817 9.67357 10.9765 9.44853 10.7515C9.22348 10.5264 8.91826 10.4 8.6 10.4H7.4C7.08174 10.4 6.77652 10.5264 6.55147 10.7515C6.32643 10.9765 6.2 11.2817 6.2 11.6V14M2 5H14V6.8C14 7.11826 13.8736 7.42348 13.6485 7.64853C13.4235 7.87357 13.1183 8 12.8 8C12.4494 7.98071 12.1146 7.84805 11.846 7.622C11.7744 7.57026 11.6883 7.54242 11.6 7.54242C11.5117 7.54242 11.4256 7.57026 11.354 7.622C11.0854 7.84805 10.7506 7.98071 10.4 8C10.0494 7.98071 9.71464 7.84805 9.446 7.622C9.37441 7.57026 9.28833 7.54242 9.2 7.54242C9.11167 7.54242 9.02559 7.57026 8.954 7.622C8.68536 7.84805 8.35056 7.98071 8 8C7.64944 7.98071 7.31464 7.84805 7.046 7.622C6.97441 7.57026 6.88833 7.54242 6.8 7.54242C6.71167 7.54242 6.62559 7.57026 6.554 7.622C6.28536 7.84805 5.95056 7.98071 5.6 8C5.24944 7.98071 4.91464 7.84805 4.646 7.622C4.57441 7.57026 4.48833 7.54242 4.4 7.54242C4.31167 7.54242 4.22559 7.57026 4.154 7.622C3.88536 7.84805 3.55056 7.98071 3.2 8C2.88174 8 2.57652 7.87357 2.35147 7.64853C2.12643 7.42348 2 7.11826 2 6.8V5Z" stroke="#EBEBEB" stroke-linecap="round" stroke-linejoin="round"/>
</svg>
