<svg width="13" height="13" viewBox="0 0 13 13" fill="none" xmlns="http://www.w3.org/2000/svg">
<path d="M8.87868 5C9.43097 5 9.87868 4.55229 9.87868 4C9.87868 3.44772 9.43097 3 8.87868 3C8.3264 3 7.87868 3.44772 7.87868 4C7.87868 4.55229 8.3264 5 8.87868 5Z" fill="#4A4A4A"/>
<path fill-rule="evenodd" clip-rule="evenodd" d="M12.8787 5.87868V3C12.8787 1.34315 11.5355 0 9.87868 0H7C6.20435 0 5.44129 0.316071 4.87868 0.878679L0.87868 4.87868C-0.292891 6.05025 -0.292896 7.94975 0.878679 9.12132L3.75736 12C4.92893 13.1716 6.82843 13.1716 8 12L12 8C12.5626 7.43739 12.8787 6.67433 12.8787 5.87868ZM11.3787 3V5.87868C11.3787 6.2765 11.2206 6.65804 10.9393 6.93934L6.93934 10.9393C6.35355 11.5251 5.40381 11.5251 4.81802 10.9393L1.93934 8.06066C1.35355 7.47487 1.35355 6.52513 1.93934 5.93934L5.93934 1.93934C6.22064 1.65804 6.60218 1.5 7 1.5H9.87868C10.7071 1.5 11.3787 2.17157 11.3787 3Z" fill="#4A4A4A"/>
</svg>
