<svg width="16" height="16" viewBox="0 0 16 16" fill="none" xmlns="http://www.w3.org/2000/svg">
<rect width="16" height="16" rx="4.26667" fill="#5C5C5C"/>
<path d="M4.25 14C3.90625 14 3.61188 13.8824 3.36688 13.6472C3.12188 13.412 2.99958 13.1296 3 12.8V5.6C3 5.27 3.1225 4.9874 3.3675 4.7522C3.6125 4.517 3.90667 4.3996 4.25 4.4H5.5C5.5 3.74 5.74479 3.175 6.23438 2.705C6.72396 2.235 7.3125 2 8 2C8.6875 2 9.27604 2.235 9.76562 2.705C10.2552 3.175 10.5 3.74 10.5 4.4H11.75C12.0937 4.4 12.3881 4.5176 12.6331 4.7528C12.8781 4.988 13.0004 5.2704 13 5.6V12.8C13 13.13 12.8775 13.4126 12.6325 13.6478C12.3875 13.883 12.0933 14.0004 11.75 14H4.25ZM6.75 4.4H9.25C9.25 4.07 9.1275 3.7874 8.8825 3.5522C8.6375 3.317 8.34333 3.1996 8 3.2C7.65625 3.2 7.36188 3.3176 7.11688 3.5528C6.87188 3.788 6.74958 4.0704 6.75 4.4ZM9.875 7.4C10.0521 7.4 10.2006 7.3424 10.3206 7.2272C10.4406 7.112 10.5004 6.9696 10.5 6.8V5.6H9.25V6.8C9.25 6.97 9.31 7.1126 9.43 7.2278C9.55 7.343 9.69833 7.4004 9.875 7.4ZM6.125 7.4C6.30208 7.4 6.45063 7.3424 6.57063 7.2272C6.69063 7.112 6.75042 6.9696 6.75 6.8V5.6H5.5V6.8C5.5 6.97 5.56 7.1126 5.68 7.2278C5.8 7.343 5.94833 7.4004 6.125 7.4Z" fill="#E9E9E9"/>
</svg>
