<svg width="13" height="13" viewBox="0 0 13 13" fill="none" xmlns="http://www.w3.org/2000/svg">
<path fill-rule="evenodd" clip-rule="evenodd" d="M13 1.93339C13 1.42062 12.7963 0.928856 12.4337 0.566276C12.0711 0.203696 11.5793 0 11.0665 0H7.08855C6.57601 0.000280353 6.08456 0.204035 5.72219 0.566482L0.566111 5.72218C0.20363 6.08474 3.19023e-07 6.57642 3.19023e-07 7.08908C3.19023e-07 7.60175 0.20363 8.09342 0.566111 8.45599L4.54274 12.4336C4.72229 12.6132 4.93545 12.7556 5.17006 12.8528C5.40467 12.95 5.65612 13 5.91007 13C6.16401 13 6.41546 12.95 6.65007 12.8528C6.88468 12.7556 7.09785 12.6132 7.2774 12.4336L12.4335 7.27791C12.7961 6.91542 12.9999 6.42373 13 5.91101V1.93339ZM9.77745 2.57785C9.94838 2.57785 10.1123 2.64575 10.2332 2.76661C10.3541 2.88747 10.422 3.05139 10.422 3.22231C10.422 3.39323 10.3541 3.55715 10.2332 3.67801C10.1123 3.79887 9.94838 3.86677 9.77745 3.86677C9.60651 3.86677 9.44194 3.79887 9.32107 3.67801C9.2002 3.55715 9.13229 3.39323 9.13229 3.22231C9.13229 3.05139 9.2002 2.88747 9.32107 2.76661C9.44194 2.64575 9.60651 2.57785 9.77745 2.57785Z" fill="#4A4A4A"/>
</svg>
