<svg width="104" height="25" viewBox="0 0 104 25" fill="none" xmlns="http://www.w3.org/2000/svg">
<mask id="mask0_34_3146" style="mask-type:alpha" maskUnits="userSpaceOnUse" x="0" y="0" width="35" height="24">
<rect width="35" height="24" fill="#1A1A1A"/>
</mask>
<g mask="url(#mask0_34_3146)">
<path d="M31.348 7.933C31.3357 7.85637 31.2983 7.786 31.2416 7.73296C31.185 7.67993 31.1123 7.64722 31.035 7.64C30.91 7.62 28.165 7.43 28.165 7.43L26.072 5.337C25.884 5.127 25.466 5.189 25.308 5.233C25.288 5.233 24.89 5.358 24.241 5.569C23.609 3.743 22.491 2.067 20.523 2.067H20.355C19.79 1.337 19.1 1 18.515 1C13.931 1.02 11.745 6.738 11.055 9.66L7.851 10.643C6.868 10.956 6.831 10.979 6.701 11.916L4 32.749L24.248 36.539L35.222 34.173C35.222 34.153 31.369 8.133 31.349 7.935L31.348 7.933ZM23.118 5.921C22.608 6.089 22.018 6.257 21.402 6.446V6.069C21.422 5.127 21.279 4.189 20.984 3.293C22.01 3.451 22.7 4.603 23.118 5.921ZM19.748 3.535C20.083 4.522 20.248 5.562 20.206 6.605V6.793L16.666 7.893C17.359 5.306 18.636 4.027 19.746 3.546L19.748 3.535ZM18.388 2.262C18.598 2.267 18.801 2.332 18.974 2.45C17.497 3.138 15.936 4.874 15.266 8.35L12.466 9.208C13.256 6.57 15.099 2.256 18.386 2.256L18.388 2.262Z" fill="white"/>
<path d="M31.036 7.63894C30.911 7.61894 28.166 7.42894 28.166 7.42894L26.073 5.33594C25.996 5.25594 25.891 5.21194 25.78 5.21094L24.252 36.5349L35.226 34.1689L31.35 7.95094C31.324 7.79094 31.198 7.66294 31.037 7.63794L31.036 7.63894Z" fill="white"/>
<path d="M20.5219 13.7112L19.1599 17.7312C18.3369 17.3312 17.4359 17.1182 16.5219 17.1012C14.3849 17.1012 14.2819 18.4412 14.2819 18.7772C14.2819 20.6072 19.0769 21.3112 19.0769 25.6252C19.0769 29.0172 16.9199 31.1952 14.0299 31.1952C10.5539 31.1952 8.77393 29.0382 8.77393 29.0382L9.69793 25.9582C9.69793 25.9582 11.5179 27.5282 13.0699 27.5282C13.2554 27.5355 13.4405 27.505 13.6139 27.4387C13.7872 27.3723 13.9453 27.2713 14.0785 27.142C14.2117 27.0127 14.3172 26.8576 14.3886 26.6862C14.46 26.5149 14.4958 26.3308 14.4939 26.1452C14.4939 23.7352 10.5569 23.6312 10.5569 19.6952C10.5569 16.3852 12.9429 13.1602 17.7389 13.1602C19.6239 13.1882 20.5249 13.7102 20.5249 13.7102L20.5219 13.7112Z" fill="#1A1A1A"/>
</g>
<path d="M43.7499 12.6992C42.9669 12.2792 42.5619 11.9162 42.5619 11.4192C42.5619 10.7892 43.1119 10.3822 44.0049 10.3822C44.6678 10.3966 45.3216 10.5396 45.9299 10.8032L46.6519 8.60924C46.6519 8.60924 45.9899 8.09724 44.0499 8.09724C41.3439 8.09724 39.4639 9.64724 39.4639 11.8252C39.4639 13.0572 40.3359 14.0052 41.5079 14.6812C42.4549 15.2312 42.7879 15.5952 42.7879 16.1692C42.7879 16.7432 42.3219 17.2222 41.4349 17.2222C40.1279 17.2222 38.8949 16.5462 38.8949 16.5462L38.1289 18.7402C38.1289 18.7402 39.2719 19.5062 41.1809 19.5062C43.9609 19.5062 45.9609 18.1382 45.9609 15.6662C45.9759 14.3282 44.9679 13.3962 43.7609 12.6892L43.7499 12.6992ZM54.8439 8.08425C53.4759 8.08425 52.3939 8.73125 51.5659 9.73025L51.5199 9.71524L52.7079 3.49924H49.6129L46.6059 19.3292H49.7029L50.7399 13.9172C51.1459 11.8732 52.2029 10.6092 53.1899 10.6092C53.8799 10.6092 54.1519 11.0752 54.1519 11.7522C54.1519 12.2122 54.1059 12.6692 54.0169 13.1202L52.8449 19.3142H55.9419L57.1599 12.9142C57.2929 12.2512 57.3699 11.5782 57.3849 10.9042C57.3699 9.16024 56.4529 8.10825 54.8449 8.10825L54.8439 8.08425ZM64.3739 8.08425C60.6459 8.08425 58.1799 11.4522 58.1799 15.1842C58.1799 17.5902 59.6679 19.5142 62.4499 19.5142C66.1069 19.5142 68.5839 16.2362 68.5839 12.4142C68.5839 10.1892 67.2769 8.08425 64.3789 8.08425H64.3739ZM62.8539 17.1492C61.8009 17.1492 61.3509 16.2492 61.3509 15.1392C61.3509 13.3652 62.2649 10.4642 63.9529 10.4642C65.0499 10.4642 65.4159 11.4112 65.4159 12.3292C65.4119 14.2342 64.4959 17.1492 62.8559 17.1492H62.8539ZM76.5039 8.08425C74.4039 8.08425 73.2259 9.91224 73.2259 9.91224H73.1799L73.3629 8.26624H70.6199L69.9899 12.3712L67.8399 23.7072H70.9229L71.7809 19.1212H71.8409C71.8409 19.1212 72.4709 19.5272 73.6609 19.5272C77.2989 19.5272 79.6739 15.7992 79.6739 12.0312C79.6889 9.95624 78.7599 8.09324 76.5019 8.09324L76.5039 8.08425ZM73.5419 17.1942C73.0746 17.2035 72.6198 17.0429 72.2619 16.7422L72.7739 13.8402C73.1399 11.9152 74.1419 10.6222 75.2239 10.6222C76.1709 10.6222 76.4559 11.4942 76.4559 12.3222C76.4609 14.3392 75.2759 17.1952 73.5459 17.1952L73.5419 17.1942ZM84.1119 3.63424C83.6379 3.63124 83.1819 3.81924 82.8489 4.15624C82.5159 4.49324 82.3309 4.95025 82.3489 5.42425C82.3489 6.33825 82.9359 6.97424 83.8119 6.97424H83.8579C84.0969 6.98374 84.3352 6.94416 84.5583 6.85794C84.7814 6.77173 84.9844 6.6407 85.1549 6.47296C85.3253 6.30523 85.4596 6.10433 85.5494 5.88268C85.6392 5.66103 85.6826 5.42333 85.6769 5.18425C85.6769 4.28425 85.0749 3.63424 84.1269 3.63424H84.1119ZM79.7859 19.2992H82.8829L84.9869 8.32924H81.8789M92.8789 8.31424H90.7159L90.8219 7.80225C91.0049 6.74925 91.6339 5.80225 92.6499 5.80225C92.9865 5.80237 93.3213 5.85293 93.6429 5.95225L94.2409 3.52924C94.2409 3.52924 93.6909 3.25924 92.5569 3.25924C91.4533 3.2318 90.3762 3.59958 89.5199 4.29624C88.4669 5.19624 87.9699 6.49025 87.7199 7.79925L87.6199 8.31124H86.1769L85.7249 10.6412H87.1679L85.5219 19.3012H88.6299L90.2759 10.6412H92.4119L92.8319 8.31124L92.8789 8.31424ZM100.337 8.32924L97.5249 15.8762H97.4789L96.7129 8.32924H93.4489L95.3139 18.4012C95.3588 18.5734 95.3373 18.7561 95.2539 18.9132C94.8489 19.6602 94.2719 20.2992 93.5699 20.7782C93.0319 21.1482 92.4449 21.4422 91.8259 21.6502L92.6839 24.2802C93.8184 23.9766 94.8598 23.3963 95.7149 22.5912C97.1279 21.2672 98.4349 19.2232 99.7749 16.4412L103.563 8.32325H100.336L100.337 8.32924Z" fill="white"/>
</svg>
